<?xml version="1.0" encoding="utf-8"?>
<!-- Generator: Adobe Illustrator 23.1.0, SVG Export Plug-In . SVG Version: 6.00 Build 0)  -->
<svg version="1.1" id="レイヤー_2のコピー_2"
	 xmlns="http://www.w3.org/2000/svg" xmlns:xlink="http://www.w3.org/1999/xlink" x="0px" y="0px" viewBox="0 0 320 320"
	 style="enable-background:new 0 0 320 320;" xml:space="preserve">
<style type="text/css">
	.st0{fill:#FFFFFF;}
</style>
<path class="st0" d="M141.9,33.8c8.5-11.1,24.7-13.5,36.3-5.3l126,82.1c11.5,8.2,14,23.8,5.5,34.9l0,0c-8.5,11.1-24.7,13.5-36.3,5.3
	l-126-82.1C136,60.5,133.5,44.9,141.9,33.8L141.9,33.8z"/>
<path class="st0" d="M141.9,158.7c8.5-11.1,24.7-13.5,36.3-5.3l126,82.1c11.5,8.2,14,23.8,5.5,34.9l0,0
	c-8.5,11.1-24.7,13.5-36.3,5.3l-126-82.1C136,185.4,133.5,169.8,141.9,158.7L141.9,158.7z"/>
<path class="st0" d="M178.4,33.8c8.5,11.1,6,26.7-5.5,34.9l-126,82.1c-11.5,8.2-27.8,5.8-36.3-5.3l0,0c-8.5-11.1-6-26.7,5.5-34.9
	l126-82.1C153.7,20.3,169.9,22.7,178.4,33.8L178.4,33.8z"/>
<path class="st0" d="M178.4,158.7c8.5,11.1,6,26.7-5.5,34.9l-126,82.1c-11.5,8.2-27.8,5.8-36.3-5.3l0,0c-8.5-11.1-6-26.7,5.5-34.9
	l126-82.1C153.7,145.2,169.9,147.6,178.4,158.7L178.4,158.7z"/>
</svg>
